<!--?xml version="1.0" standalone="no"?-->
              <svg id="sw-js-blob-svg" viewBox="0 0 100 100" xmlns="http://www.w3.org/2000/svg" version="1.1">
                    <defs> 
                        <linearGradient id="sw-gradient" x1="0" x2="1" y1="1" y2="0">
                            <stop id="stop1" stop-color="rgba(0, 176, 255, 1)" offset="0%"></stop>
                            <stop id="stop2" stop-color="rgba(0, 176, 255, 1)" offset="100%"></stop>
                        </linearGradient>
                    </defs>
                <path fill="url(#sw-gradient)" d="M24.4,-30.9C27.9,-26.1,24.5,-14.9,25.7,-5C26.8,4.8,32.5,13.4,30.8,19.1C29.1,24.7,20,27.5,12.7,26.4C5.4,25.4,-0.1,20.5,-6.5,18.1C-12.8,15.7,-19.9,15.6,-26.2,11.7C-32.6,7.8,-38.2,0.1,-35.3,-4.5C-32.4,-9,-21,-10.2,-13.7,-14.4C-6.4,-18.6,-3.2,-25.7,3.6,-30C10.4,-34.3,20.8,-35.8,24.4,-30.9Z" width="100%" height="100%" transform="translate(50 50)" stroke-width="0" style="transition: all 0.3s ease 0s;" stroke="url(#sw-gradient)"></path>
              </svg>