<!--?xml version="1.0" standalone="no"?-->
              <svg id="sw-js-blob-svg" viewBox="0 0 100 100" xmlns="http://www.w3.org/2000/svg" version="1.1">
                    <defs> 
                        <linearGradient id="sw-gradient" x1="0" x2="1" y1="1" y2="0">
                            <stop id="stop1" stop-color="rgba(255, 255, 255, 1)" offset="0%"></stop>
                            <stop id="stop2" stop-color="rgba(255, 255, 255, 1)" offset="100%"></stop>
                        </linearGradient>
                    </defs>
                <path fill="none" d="M18.6,-31.8C21.2,-27.3,18.4,-17.2,22,-9.9C25.6,-2.6,35.7,2,38.8,8.2C41.9,14.3,38.1,22,31.5,24.3C24.9,26.5,15.3,23.2,7.7,24.6C0.1,26.1,-5.6,32.3,-11.9,33.6C-18.2,34.9,-25.1,31.3,-27.3,25.5C-29.5,19.7,-27.1,11.6,-27.9,4.2C-28.7,-3.3,-32.8,-10,-32.5,-16.6C-32.2,-23.1,-27.6,-29.5,-21.5,-32.3C-15.3,-35.2,-7.7,-34.6,0.2,-34.8C8,-35.1,16,-36.3,18.6,-31.8Z" width="100%" height="100%" transform="translate(50 50)" stroke-width="1" style="transition: all 0.3s ease 0s;" stroke="url(#sw-gradient)"></path>
              </svg>